<svg width="42" height="38" viewBox="0 0 42 38" fill="none" xmlns="http://www.w3.org/2000/svg">
<g id="b3NpOZ">
<g id="Group">
<path id="Vector" d="M40.4706 7.18867C40.4841 7.2917 40.337 7.24401 40.2658 7.24695C39.6585 7.27168 39.0482 7.25108 38.4415 7.30642C37.5359 7.6744 36.5655 7.56077 35.6734 7.7168C35.5233 7.74329 35.5716 7.91109 35.3191 7.94818C34.9413 8.00353 34.5065 7.90049 34.1157 8.01295L34.2281 8.15955C34.1587 8.26259 34.0663 8.30969 33.9527 8.35032C33.3666 8.55992 32.4115 8.4616 31.866 8.66237C31.8013 8.68592 31.7995 8.7919 31.6812 8.84371C31.4029 8.96617 30.898 8.95911 30.582 9.04036C29.5722 9.3006 28.5306 9.8982 27.4637 10.2185C27.0535 10.3416 26.7993 10.6442 26.4274 10.8302C25.6371 11.2259 24.6037 11.5432 23.7769 11.8877C23.0555 12.1879 22.7142 12.5648 22.1304 12.9486C21.8109 13.1588 21.5225 13.1153 21.2436 13.2389C21.0553 13.3225 20.4856 13.8188 20.2226 13.9837C19.8495 14.2174 18.9027 14.6455 18.6396 14.8728C18.5184 14.977 18.5278 15.1047 18.4354 15.1983C18.2683 15.3673 17.704 15.5298 17.4656 15.7C17.2844 15.8289 17.0237 16.2093 16.8707 16.2823C16.6624 16.3818 16.3811 16.3765 16.1122 16.5243C15.5566 16.8304 15.3036 17.2861 14.8676 17.6341C14.5257 17.9067 14.0772 18.0733 13.7271 18.3771C13.3164 18.7333 13.0545 19.2309 12.6373 19.5829C12.3536 19.8226 11.9817 19.991 11.6945 20.2294C11.1367 20.6922 9.49838 22.2513 9.15237 22.8082C9.08999 22.9083 8.97936 23.271 8.9158 23.3075C8.83812 23.3523 8.68748 23.3093 8.51976 23.4123C8.43326 23.4653 7.84715 24.1454 7.80772 24.2331C7.75711 24.3461 7.82479 24.4209 7.74534 24.5775C7.70533 24.657 6.94915 25.6279 6.87029 25.7062C6.64844 25.9252 6.12647 26.2114 6.05762 26.6017C5.97288 27.0845 5.93993 27.1316 5.68159 27.5785C5.01427 28.7307 4.0839 29.6451 3.57547 30.888L3.69198 30.9157C3.80203 31.1253 2.98406 32.1209 2.91697 32.407L2.16315 34.4489C2.1861 33.4456 2.52682 32.4871 2.73573 31.5197C2.83753 31.047 2.98935 29.5909 3.2218 29.2977C3.34538 29.1423 3.51427 29.104 3.60548 28.9162C3.82615 28.4617 3.86852 27.4613 4.14922 26.9874C4.21925 26.8696 4.33635 26.8449 4.39049 26.7577C4.79889 26.0954 5.19728 24.9573 5.69689 24.4715C5.74926 24.4203 5.85636 24.4138 5.91109 24.3632C5.94169 24.3349 6.34067 23.6985 6.35597 23.6555C6.40952 23.5083 6.3136 23.3894 6.34715 23.3311C6.36421 23.3011 6.74142 23.0279 6.8597 22.8701C7.10803 22.5386 6.99034 22.5763 7.05742 22.3078C7.13569 21.9957 8.0843 21.2686 8.34028 20.9954C8.65099 20.6651 8.94935 20.253 9.25182 19.9056C9.33891 19.8061 9.63432 19.5688 9.66727 19.4952C9.70023 19.4216 9.57606 19.3233 9.57665 19.2279C9.57724 19.1031 10.3387 18.5832 10.49 18.436C10.8772 18.0598 11.1461 17.557 11.5498 17.2002C11.9535 16.8434 13.4752 16.0992 13.6241 15.8319C13.6612 15.7659 13.6277 15.604 13.6641 15.4886C13.8477 14.904 14.1555 15.1854 14.4597 15.0482C14.581 14.9935 14.834 14.6514 15.0541 14.5248C15.2742 14.3982 15.3495 14.4494 15.4996 14.387C15.9191 14.2127 16.3052 13.4662 16.5782 13.1029L16.6559 13.0846C17.1026 13.4114 17.7093 12.7655 18.1288 12.5371C18.6078 12.2763 19.2552 12.0455 19.6824 11.7364C19.999 11.5073 20.1961 11.0787 20.5186 10.9244C20.761 10.8084 21.1041 10.8037 21.4037 10.6913C22.1339 10.4181 22.7995 9.89291 23.5674 9.61795C24.0423 9.44779 24.8738 9.35123 25.2316 9.04566C25.4029 8.89964 25.4717 8.65354 25.6977 8.56993C26.2856 8.4822 27.0141 8.56228 27.5867 8.45806C27.6608 8.44452 28.2469 8.25729 28.2752 8.23433C28.3711 8.15602 28.3711 7.83985 28.6294 7.73505C28.8342 7.65144 29.6345 7.57314 29.9094 7.5437C30.1524 7.51779 30.4337 7.57667 30.6702 7.53958C30.9274 7.49895 31.2258 7.25225 31.5718 7.20515C32.1014 7.13332 32.6175 7.22046 33.1777 7.10447C33.4719 7.04383 33.8079 6.84953 34.0933 6.84247C34.4688 6.83364 34.9031 6.93314 35.3215 6.89428C35.5498 6.87308 35.8282 6.72883 35.9741 6.71882C36.12 6.70882 36.3501 6.87249 36.5578 6.89546C37.134 6.95904 37.7354 6.80302 38.3227 6.83717C39.0341 6.87838 39.755 7.15216 40.4712 7.19043L40.4706 7.18867Z" fill="white"/>
<path id="Vector_2" d="M27.7308 19.7877C27.5655 19.8154 26.9505 20.0733 27.0447 20.3076C26.375 20.4148 25.8624 20.9729 25.2693 21.2108C24.7667 21.4128 24.3713 21.255 23.8923 21.5994C23.7304 21.716 23.6345 21.9091 23.4586 22.0486C23.3526 22.1328 22.517 22.6403 22.4693 22.6086L22.3464 22.4366C22.2846 22.6415 22.1286 23.1131 21.8509 23.0213C21.7449 22.986 21.8056 22.7923 21.6402 22.8488C21.5484 23.4228 21.0617 23.3157 20.6569 23.4847C20.1626 23.6913 19.8542 23.9939 19.5711 24.4002C19.3599 24.7022 18.7379 24.9366 18.7096 24.9807C18.6726 25.0384 18.7226 25.1597 18.6402 25.2339C18.5154 25.3458 18.05 25.3104 17.8675 25.5854C17.8057 25.679 17.8817 25.7921 17.7928 25.8545L17.3414 25.9975L17.2567 26.3208C17.1573 26.2631 17.0219 26.1936 16.9054 26.2054C16.8059 26.2154 16.078 26.7871 15.9986 26.8901C15.8591 27.0715 15.5425 28.0488 15.3242 28.0217C15.26 28.0141 15.19 27.9275 15.1265 27.9205C15.0241 27.9093 14.3685 28.5481 14.2526 28.6765C14.1367 28.8048 14.0937 29.0062 13.9625 29.0927C13.8212 29.1858 13.6253 29.1563 13.4876 29.2652C13.3116 29.4042 13.091 29.9182 12.9303 30.1207C12.4554 30.7201 11.7781 31.1393 11.2232 31.6509C10.4334 32.3781 9.84203 33.2701 9.1647 34.095C9.41068 33.1606 10.0274 32.3386 10.4111 31.4861C10.7695 30.6907 10.9572 29.9506 11.4703 29.1899C11.7204 28.8195 11.9888 28.713 12.2224 28.4115C12.3883 28.1972 12.4707 27.8133 12.5731 27.702C12.7379 27.5219 12.6814 27.6496 12.8768 27.36C12.9497 27.2522 13.2151 27.0897 13.3405 26.9402C13.936 26.2295 14.262 25.994 14.9028 25.3829C15.3006 25.0037 15.6478 24.4314 16.048 24.1146C16.2569 23.9492 16.6371 23.8426 16.7565 23.7049C16.9101 23.527 16.8348 23.3098 16.9637 23.1467C17.0925 22.9836 17.4939 22.8352 17.6963 22.7899L17.5868 22.6433C17.9664 22.1576 18.6249 22.0598 19.1033 21.696C19.3216 21.5299 19.8436 20.8799 19.9937 20.8152C20.1267 20.758 20.2373 20.8864 20.3438 20.821C20.4156 20.7769 20.6157 20.3789 20.6686 20.3771L20.7857 20.6108C21.1518 20.413 21.7102 20.2358 22.0133 19.955C22.2498 19.7359 22.5141 18.9664 22.8925 19.0306C22.9913 19.0471 23.0655 19.1601 23.1549 19.1848C23.5774 19.302 23.6457 18.8451 23.9599 18.7226C24.2289 18.6178 24.9203 18.6508 25.1327 18.4966C25.1881 18.4565 25.1757 18.3258 25.2893 18.2275C25.3593 18.1668 26.0543 17.8024 26.172 17.7559C26.5086 17.624 27.6149 17.5316 27.7614 17.4038C27.8662 17.3125 27.7867 17.1542 27.8273 17.087L27.8897 17.0599C28.1616 16.9593 28.5176 17.0058 28.7771 16.9481C28.9213 16.9163 29.009 16.8021 29.2008 16.782C29.4815 16.7532 29.7422 16.9086 29.9729 16.8539C30.2748 16.782 30.5184 16.4094 30.805 16.3823C31.0092 16.3628 31.0733 16.5548 31.2546 16.5477C31.4076 16.5418 31.6177 16.4005 31.796 16.377C32.0731 16.3399 32.3709 16.3982 32.6581 16.3564C32.9594 16.3128 33.4737 15.9566 33.6167 15.9601C33.7479 15.9637 33.7685 16.1691 34.1386 16.132C34.6065 16.0849 34.5606 15.737 34.7336 15.7217C34.8801 15.7087 35.5698 15.9395 35.8517 15.9589C36.2459 15.986 36.7232 15.9631 37.1039 15.8594C37.4246 15.7723 37.7495 15.4809 38.0249 15.4862C38.4356 15.4944 38.9358 15.9495 39.3107 15.8306C39.4001 15.8023 39.4443 15.6651 39.5467 15.6746C39.7214 15.6905 40.1416 15.9637 40.3958 16.0043C40.7301 16.0579 41.1461 16.0272 41.4927 16.0843L42 16.1945C41.5586 16.241 40.9931 16.2539 40.5753 16.3882C40.2734 16.4853 39.9651 16.755 39.6461 16.8715C38.8317 17.1689 37.9254 16.8144 37.1028 17.0941C36.8209 17.1901 36.8668 17.3367 36.7091 17.4656C36.4331 17.6917 36.2389 17.3991 36.0347 17.4285C35.9964 17.4344 36.0035 17.5386 35.9588 17.5486C35.4603 17.6652 34.4794 17.5257 34.038 17.7394C33.9415 17.7865 33.9527 17.8995 33.8262 17.936C33.609 17.999 33.3689 17.926 33.1559 17.9737C32.874 18.0367 32.3656 18.8634 32.112 18.7009C32.0043 18.632 32.0525 18.4059 31.916 18.4394C31.6588 18.503 31.4517 18.9582 31.1275 19.0111C30.9427 19.0412 30.8756 18.9299 30.7279 18.9063C30.2436 18.8292 30.0529 19.1195 29.6451 19.2296C29.3497 19.3091 29.0025 19.3026 28.7006 19.3744L28.7559 19.6906L28.6718 19.786C28.3823 19.8195 28.0051 19.74 27.7302 19.786L27.7308 19.7877Z" fill="white"/>
<path id="Vector_3" d="M34.6448 0.241284L32.6058 0.644006C31.9367 1.10443 31.2046 0.980784 30.5085 1.13622C30.3201 1.17802 30.3231 1.32875 30.2442 1.3576C30.0383 1.43296 29.165 1.39469 29.1126 1.47771L29.1685 1.67554C29.102 1.90693 27.452 1.99171 27.1342 2.11476C26.2997 2.43918 25.5689 2.66115 24.7032 3.04032C24.1842 3.26758 23.6369 3.38063 23.1715 3.5655C22.8972 3.67443 22.6789 3.95998 22.367 4.11718C22.074 4.26497 21.6962 4.30971 21.4472 4.43335C21.0194 4.64531 20.6163 4.83902 20.1697 5.0392C19.5541 5.31534 19.3564 5.5167 18.8686 5.91589C18.449 6.25914 18.1683 6.14845 17.9094 6.31037C17.8188 6.36689 17.5904 6.64243 17.4221 6.7649C16.9955 7.07459 16.0375 7.53973 15.7209 7.83529C15.645 7.90594 15.6909 8.0025 15.5849 8.10201C15.3731 8.30042 14.9712 8.38403 14.7258 8.60129C14.5704 8.73906 14.4651 8.99223 14.2797 9.09703C14.0773 9.21184 13.8148 9.20301 13.5806 9.33961C13.0987 9.62222 12.8715 10.1103 12.4878 10.4247C12.203 10.6579 11.824 10.8015 11.5463 11.0724C11.2685 11.3432 11.1267 11.7082 10.8725 11.9879C10.5594 12.3318 10.1116 12.4872 9.77383 12.8022C9.59141 12.9723 9.40369 13.2856 9.22479 13.4598C8.78991 13.8861 7.9896 14.492 7.70184 14.9977C7.62299 15.1361 7.59592 15.4122 7.49117 15.497C7.38642 15.5818 7.2752 15.4764 7.10925 15.5788C7.02746 15.6295 6.60023 16.1111 6.54786 16.1988C6.44017 16.379 6.47489 16.5433 6.3672 16.7246C6.33895 16.7723 5.72871 17.4906 5.66575 17.5536C5.43271 17.785 5.11376 17.8668 4.93428 18.2389C4.85072 18.4126 4.94899 18.488 4.88426 18.6517C4.79599 18.876 4.24754 19.6167 4.06982 19.8427C3.49725 20.5705 2.76872 21.1351 2.33914 21.9971L2.51451 22.0548L1.72478 23.0315L0.691437 24.8509C0.826784 24.026 1.21105 23.2682 1.47116 22.4822C1.59885 22.0972 1.92781 20.6223 2.13083 20.4339C2.24205 20.3308 2.41623 20.3267 2.50862 20.1642C2.70105 19.8245 2.81109 18.79 3.04942 18.4674C3.11827 18.3749 3.21655 18.3973 3.28304 18.3331C3.64024 17.9881 3.94095 16.9613 4.25401 16.5533C4.45645 16.2901 4.93428 16.0993 5.07492 15.6642C5.1067 15.5659 5.03314 15.4811 5.05197 15.411C5.06374 15.3669 5.55806 15.0154 5.64927 14.7646C5.69988 14.625 5.61161 14.5597 5.68516 14.3978C5.84229 14.0533 6.4896 13.6235 6.75441 13.3439C6.89211 13.1978 7.8419 12.0597 7.85837 11.9732C7.88132 11.8513 7.75951 11.7312 7.83836 11.6046C7.87779 11.5416 8.18733 11.3691 8.28207 11.2808C8.89172 10.7162 9.13476 10.0785 9.82738 9.58866C10.1381 9.36905 11.0537 8.9204 11.1932 8.60011C11.2421 8.48824 11.2144 8.36165 11.2521 8.24684C11.4068 7.77406 11.6046 8.04018 11.8911 7.94421C11.9641 7.91949 12.2601 7.46495 12.4372 7.37193C12.6144 7.2789 12.7638 7.32659 12.9598 7.18823C13.2293 6.99805 13.6059 6.1408 13.6948 6.0937C13.8078 6.03423 13.9013 6.21263 14.1067 6.162C14.3386 6.10488 15.0277 5.57558 15.3031 5.41131C15.8356 5.09455 16.2511 4.98798 16.6948 4.50754C16.8437 4.34622 16.9243 4.06243 17.1691 3.98118C17.325 3.92936 17.4663 3.97411 17.5946 3.93584C18.2795 3.72977 18.878 3.19281 19.5206 2.91903C19.9749 2.72532 20.9929 2.59638 21.2872 2.27255C21.3643 2.18718 21.3849 2.05883 21.4614 1.97581C21.7191 1.69673 22.7701 1.88102 23.1938 1.82509C23.408 1.79683 23.6422 1.6567 23.86 1.61313L24.2083 1.0744C24.6044 1.0903 24.988 0.987261 25.3764 0.947813C25.9372 0.891291 25.8778 0.954878 26.4233 0.758817C26.9382 0.573353 27.5396 0.672856 28.0769 0.588072C28.3953 0.537438 28.6954 0.31076 28.9684 0.297218C29.4168 0.275433 29.787 0.409085 30.3143 0.295452C30.4649 0.263069 30.5555 0.149436 30.6232 0.13766C30.7132 0.122352 31.064 0.287209 31.2582 0.302517C31.6354 0.331367 31.8684 0.200659 32.2003 0.180641C33.0153 0.130595 33.8309 0.250705 34.6442 0.242462L34.6448 0.241284Z" fill="white"/>
<path id="Vector_4" d="M35.5863 25.7939C35.6187 25.7568 35.5151 25.5831 35.6728 25.6185C35.8923 25.6685 36.2377 25.9859 36.5149 26.0176C36.7673 26.0465 37.0086 25.8057 37.2046 26.0306C37.264 26.0995 37.2693 26.2508 37.3329 26.2667C37.5653 26.325 37.7642 26.1554 37.969 26.0854C38.1185 26.6347 38.4986 26.222 38.7905 26.2632C38.9835 26.2903 39.4096 26.6482 39.6079 26.7454L40.2364 26.9697C39.9533 27.0286 39.6479 26.8979 39.3866 26.9091C39.0029 26.9255 38.3809 27.2741 38.0131 27.1033C37.9154 27.058 37.8996 26.9444 37.8407 26.9085C37.5371 26.7218 36.8544 27.1463 36.5555 27.151C36.3819 27.154 36.2883 27.0339 36.216 27.0398C36.0418 27.0533 35.7052 27.386 35.5557 27.3836C35.3703 27.3966 35.4074 27.0462 35.3144 27.025C34.9496 27.0615 34.6406 27.194 34.2622 27.1481C34.0386 27.121 33.8503 26.9491 33.6155 26.9644C33.4178 26.9774 33.3843 27.131 33.2377 27.1793C32.9829 27.2629 32.661 27.1652 32.4121 27.088C32.2503 27.847 31.4806 27.2329 31.0286 27.3241C30.7915 27.3718 30.918 27.4331 30.4978 27.4537C30.15 27.4702 30.2171 27.595 30.0753 27.6639C29.8846 27.7569 29.5127 27.7322 29.3074 27.8352C29.2091 27.8841 29.1902 28.0089 29.0214 28.0837C28.8307 28.1684 28.5541 28.2032 28.334 28.2785C28.1139 28.3539 28.0145 28.5205 27.7391 28.4993C27.5896 28.4876 27.4525 28.3616 27.2913 28.3833C27.3748 29.2536 26.7134 28.792 26.2656 28.8561C25.9749 28.8973 25.7524 29.2753 25.5406 29.3166C25.3276 29.3578 25.2499 29.1635 24.9951 29.2329C24.4466 29.3831 24.246 29.9083 23.8999 30.0837C23.7322 30.1685 23.5739 30.1191 23.4321 30.2044C23.3185 30.2727 23.2509 30.5053 23.0749 30.6124C22.6194 30.8903 21.5914 31.0746 21.0135 31.3761C20.7187 31.5298 20.4509 31.7676 20.1714 31.9454L20.3456 32.1221C20.3456 32.3193 19.5529 32.5354 19.4435 32.6172C19.3835 32.6626 19.3805 32.8386 19.2893 32.9481C19.1781 33.0806 18.9268 33.1583 18.7879 33.2702C18.5378 33.4715 18.3901 33.7818 18.1406 33.9767C17.8834 34.1775 17.5004 34.3205 17.2102 34.5178C16.6706 34.8846 15.8891 35.5446 15.3766 35.9803C14.7281 36.5314 14.2238 37.2485 13.64 37.8632C13.8077 37.3798 14.1114 36.9465 14.3797 36.5143C15.2789 35.0665 16.2875 33.5298 17.4339 32.2693C17.8952 31.7623 18.4454 31.329 18.9144 30.8362C19.0745 30.6678 19.2104 30.3652 19.3746 30.2074C19.7554 29.84 20.3279 29.9153 20.7911 29.6816C21.1436 29.5032 21.4401 29.1329 21.8009 28.9256C22.2581 28.6636 22.7507 28.6589 22.9372 28.0566C23.0378 27.993 23.2008 28.1208 23.3627 28.0784C23.5433 28.0313 23.9694 27.6368 24.1441 27.6391C24.2524 27.6403 24.3425 27.8258 24.4849 27.7893C24.7108 27.731 25.1769 27.0386 25.5994 27.2553C25.9148 27.0621 26.5598 27.1298 26.8446 26.9185C26.9152 26.8661 26.8517 26.5552 27.1465 26.5016C27.4596 26.4445 27.7538 26.6535 27.8568 26.2008L28.9984 26.3815L28.9449 25.9741C29.3156 25.8928 29.7016 25.884 30.08 25.8445C30.276 25.8239 30.4766 25.7321 30.6761 25.7292C31.0492 25.7239 31.3529 25.9423 31.733 25.6732C31.8937 26.2685 32.4898 25.7757 32.8558 25.7892C32.9882 25.7939 33.0524 25.8946 33.15 25.9075C33.4643 25.9494 34.1546 25.9187 34.4464 25.7969C34.6094 25.7286 34.6706 25.5725 34.7666 25.5278C35.0272 25.4059 35.3468 25.7044 35.5886 25.7927L35.5863 25.7939Z" fill="white"/>
</g>
</g>
</svg>
