<svg width="41" height="40" viewBox="0 0 41 40" fill="none" xmlns="http://www.w3.org/2000/svg">
<g id="Group 3">
<path id="Vector" d="M8.79698 0.521865C9.87557 0.35372 9.74999 1.16275 10.1644 1.90699C10.8788 3.18875 12.39 4.13836 13.8913 4.20865C14.2723 4.22657 14.829 4.07083 15.0941 4.14939C15.3592 4.22795 16.1936 5.07005 16.6541 5.29884C17.508 5.72333 18.5741 5.8584 19.5187 5.74814C20.9531 5.58138 20.8694 4.55872 22.008 6.09684C25.3303 10.5885 26.2345 16.9036 27.8921 22.1133C26.84 24.5253 24.6521 26.4479 22.1671 27.3024C19.1615 26.073 15.909 25.6265 12.8169 24.6658C5.10214 22.2705 -2.59172 16.1152 1.18125 7.23664C2.35194 4.48154 5.70074 1.007 8.79698 0.521865Z" fill="white"/>
<path id="Vector_2" d="M28.6679 23.7108C30.2209 26.5238 32.9627 28.5484 35.1478 30.8859L35.2818 30.9162C40.7668 27.8014 42.0798 35.3886 37.0427 36.4181C36.6408 40.5184 29.4214 40.7058 30.8306 35.9054C30.959 35.4685 31.4167 34.9999 31.1613 34.6099C28.8004 32.2917 26.6028 29.7585 23.7605 27.9916C25.167 27.2873 26.4926 26.2922 27.5167 25.1C27.8251 24.7403 28.1321 24.0981 28.4139 23.8197C28.5004 23.7342 28.5102 23.6749 28.6679 23.7108Z" fill="white"/>
</g>
</svg>
