<svg width="37" height="37" viewBox="0 0 37 37" fill="none" xmlns="http://www.w3.org/2000/svg">
<g id="Group 13">
<path id="Vector" d="M16.3733 27.5H19.9733V16.7H16.3733V27.5ZM18.1733 13.1C18.6833 13.1 19.1111 12.9272 19.4567 12.5816C19.8011 12.2372 19.9733 11.81 19.9733 11.3C19.9733 10.79 19.8011 10.3622 19.4567 10.0166C19.1111 9.67224 18.6833 9.50004 18.1733 9.50004C17.6633 9.50004 17.2361 9.67224 16.8917 10.0166C16.5461 10.3622 16.3733 10.79 16.3733 11.3C16.3733 11.81 16.5461 12.2372 16.8917 12.5816C17.2361 12.9272 17.6633 13.1 18.1733 13.1ZM18.1733 36.5C15.6833 36.5 13.3433 36.0272 11.1533 35.0816C8.96334 34.1372 7.05834 32.855 5.43834 31.235C3.81834 29.615 2.53614 27.71 1.59174 25.52C0.64614 23.33 0.17334 20.99 0.17334 18.5C0.17334 16.01 0.64614 13.67 1.59174 11.48C2.53614 9.29004 3.81834 7.38504 5.43834 5.76504C7.05834 4.14504 8.96334 2.86224 11.1533 1.91664C13.3433 0.972238 15.6833 0.500038 18.1733 0.500038C20.6633 0.500038 23.0033 0.972238 25.1933 1.91664C27.3833 2.86224 29.2883 4.14504 30.9083 5.76504C32.5283 7.38504 33.8105 9.29004 34.7549 11.48C35.7005 13.67 36.1733 16.01 36.1733 18.5C36.1733 20.99 35.7005 23.33 34.7549 25.52C33.8105 27.71 32.5283 29.615 30.9083 31.235C29.2883 32.855 27.3833 34.1372 25.1933 35.0816C23.0033 36.0272 20.6633 36.5 18.1733 36.5ZM18.1733 32.9C22.1933 32.9 25.5983 31.505 28.3883 28.715C31.1783 25.925 32.5733 22.52 32.5733 18.5C32.5733 14.48 31.1783 11.075 28.3883 8.28504C25.5983 5.49504 22.1933 4.10004 18.1733 4.10004C14.1533 4.10004 10.7483 5.49504 7.95834 8.28504C5.16834 11.075 3.77334 14.48 3.77334 18.5C3.77334 22.52 5.16834 25.925 7.95834 28.715C10.7483 31.505 14.1533 32.9 18.1733 32.9Z" fill="black"/>
</g>
</svg>
