<svg width="34" height="37" viewBox="0 0 34 37" fill="none" xmlns="http://www.w3.org/2000/svg">
<path id="Exclusion 1" d="M11.12 36.4822H1.979L1.92907 35.9432L2.57322 35.8942C4.08089 35.778 4.34118 34.9623 4.56381 29.6573L5.09583 13.8676H5.41668C6.34408 19.6336 8.542 25.118 11.8493 29.9179C12.9821 31.6635 13.8006 32.9237 13.916 34.1775C13.9618 34.4504 13.9486 34.7299 13.8771 34.9972C13.8056 35.2645 13.6776 35.5131 13.5018 35.726C13.178 36.0105 12.7993 36.225 12.3894 36.3551C11.9795 36.4852 11.5474 36.5282 11.12 36.4822ZM30.6273 36.4822H27.7666L3.55215 4.6124L3.52922 4.58183C2.53556 3.22675 1.59674 1.9459 0.17337 1.55791V1.16454H12.3551V1.18223L30.624 24.973V36.4822H30.6273ZM28.5884 11.2394C27.1739 11.2379 25.8178 10.6717 24.8177 9.66514C23.8175 8.65854 23.2549 7.29329 23.2534 5.86975C23.2547 4.44607 23.8172 3.08114 24.8174 2.07437C25.8176 1.06759 27.1738 0.501588 28.5884 0.500061C30.002 0.50484 31.3563 1.07232 32.3558 2.07839C33.3553 3.08446 33.9188 4.44707 33.9234 5.86975C33.9212 7.29286 33.3584 8.65747 32.3583 9.66353C31.3582 10.6696 30.0024 11.2355 28.5884 11.237V11.2394Z" fill="#131313"/>
</svg>
