<svg width="55" height="36" viewBox="0 0 55 36" fill="none" xmlns="http://www.w3.org/2000/svg">
<g id="Group 9">
<g id="WH6QG0">
<path id="Vector" d="M34.6605 8.61317L34.1944 8.05049L33.9312 9.35641L33.4637 8.98969C33.6947 9.61396 33.7968 10.3194 33.5043 10.9395L32.5777 9.60976L32.6253 11.162L31.9282 10.3138L32.0136 12.1474L31.1878 11.6519C31.4271 12.251 31.2606 13.0222 30.9134 13.5555L29.9141 11.4714C29.6061 11.5414 30.1058 13.4743 29.5655 13.214L28.9511 11.9305L28.5354 13.1146L28.149 12.314L27.8173 13.2616L27.4324 12.4596C25.1985 13.3176 25.4728 16.5789 26.8487 18.0738C26.9481 18.1801 29.315 19.3741 29.4592 19.4021C29.7419 19.4581 29.8161 19.2201 30.0162 19.1123L30.4026 19.913L30.7273 19.3629L31.1934 20.1285L31.5237 19.3797L31.903 20.3791L32.2488 18.8338L32.789 19.9564L33.1992 19.1711L33.5015 20.2083L33.8262 19.6582L34.0614 20.1411L34.2993 19.822L34.6129 20.2699L34.6185 19.8696L34.9306 20.3133L35.3393 19.5267L35.6486 20.1677L35.8138 19.696C36.1707 20.9068 37.5424 19.7142 37.6222 20.7948C37.7258 22.2085 36.3149 23.8797 35.0384 24.3486C32.8618 25.1493 30.9848 24.3024 29.1008 24.5278C28.1224 24.6468 27.1133 25.1969 26.1181 25.4152C24.6148 25.7427 22.9659 25.6168 21.625 26.486C20.634 27.1312 20.0797 29.1426 19.4219 30.2428C19.0888 30.8013 18.7094 31.3318 18.3273 31.858C17.787 32.6013 15.966 34.5483 14.7189 35.9998C9.31742 35.0382 4.40867 32.3171 0.955597 28.1376C2.96557 26.9395 4.7082 25.4894 6.33046 22.8132C8.82893 18.6924 7.5384 13.8929 12.3226 11.1886C13.3248 10.6217 14.5761 10.4412 15.4369 9.8869C16.2194 9.38581 16.7107 8.31923 17.6373 7.85173C18.9376 7.19807 20.529 7.92172 21.464 7.555C23.3732 6.80475 24.3502 5.01453 26.3602 4.34548C28.5997 3.59943 31.9492 3.69321 33.7366 5.37146C35.2469 6.78936 34.3175 6.94333 34.6563 8.61037L34.6605 8.61317Z" fill="white"/>
</g>
<g id="Group 7">
<path id="Vector_2" d="M46.8937 0.0190045C47.5627 -0.133563 48.3354 0.672666 48.8057 1.10237C53.6262 5.50584 55.3227 12.4974 53.044 18.6225C52.8382 19.1753 52.1537 20.8368 51.7772 21.1979C50.9794 21.9664 49.7085 21.2007 50.0766 20.081C50.2711 19.4889 50.7946 18.698 51.0494 18.029C53.0594 12.7563 51.6876 6.73758 47.6271 2.82961C47.245 2.46289 46.2638 1.79943 46.1224 1.36272C45.9349 0.783242 46.31 0.153376 46.8965 0.0190045H46.8937Z" fill="white"/>
<path id="Vector_3" d="M44.4093 4.2084C44.8796 4.02364 45.1875 4.09083 45.5711 4.38756C47.0267 5.51013 48.5034 8.0114 48.9877 9.77082C49.7338 12.4932 49.5546 16.0401 48.0625 18.4896C47.686 19.1068 46.9778 19.4036 46.3801 18.8647C45.6424 18.1984 46.2191 17.619 46.4963 16.9681C48.0877 13.2435 47.4635 9.3943 44.6878 6.41573C44.2847 5.98323 43.8606 5.84046 43.8144 5.1616C43.7906 4.79068 44.058 4.34557 44.4093 4.2084Z" fill="white"/>
<path id="Vector_4" d="M41.8084 7.83206C42.7994 7.57311 43.7848 9.22616 44.1417 9.9778C44.8933 11.5553 45.1355 14.1069 44.2887 15.6984C43.9751 16.2877 43.2809 16.5088 42.7182 16.1057C41.9008 15.5206 42.5628 14.5912 42.6846 13.8368C42.9016 12.4973 42.5502 11.099 41.7384 10.0156C41.4865 9.67967 41.103 9.45291 41.0316 8.98821C40.9588 8.52351 41.3367 7.95383 41.807 7.83066L41.8084 7.83206Z" fill="white"/>
</g>
</g>
</svg>
