<svg width="46" height="42" viewBox="0 0 46 42" fill="none" xmlns="http://www.w3.org/2000/svg">
<g id="Group 4">
<path id="Vector" d="M36.8649 14.8637C37.0898 15.3581 37.3147 16.2755 37.5011 17.3949C37.5772 17.8509 37.5844 18.4786 37.6848 18.8917C37.7197 19.0347 37.8622 19.2011 37.9267 19.3495C38.571 20.831 37.9876 24.302 37.7009 25.9141C37.4751 27.1837 36.5593 30.4562 37.1104 31.5309C37.3837 32.0647 37.864 31.893 38.2825 31.6498C38.9223 31.2788 39.0997 30.8093 39.5226 30.2496C40.2323 29.309 41.3327 27.9974 42.3874 27.4627C42.5836 27.3634 42.8417 27.3089 43.0155 27.1998C43.2682 27.0415 43.7592 26.5051 43.977 26.2664C44.5048 25.6852 45.1016 24.7526 45.2862 23.9756C45.365 24.327 45.4869 24.369 45.5129 24.5586C45.6311 25.4205 45.2844 26.4657 44.96 27.2615C44.865 27.494 44.6338 27.8561 44.5783 28.0653C44.5039 28.3452 44.5424 28.7806 44.4501 29.1472C43.9438 31.1491 42.0486 33.6723 40.7216 35.2424C39.8595 36.2626 39.3237 37.5635 39.0145 38.8555C38.7753 39.8587 38.8084 40.5928 37.7511 41.1194C35.941 42.0216 32.3352 40.9942 30.4194 40.4873C26.7169 39.5073 25.7249 37.6466 24.6738 34.1837C24.2204 32.6897 23.638 30.5116 24.1738 29.0023C24.2097 28.9004 24.3611 28.6671 24.3665 28.5991C24.3772 28.4703 24.1944 27.8445 24.1622 27.6487C23.9838 26.5811 23.7769 25.1666 24.2563 24.2126C24.3512 24.0248 24.5152 23.7467 24.8029 23.449C24.741 23.8558 24.7446 24.1884 24.759 24.4137C24.759 24.4137 24.8943 25.9176 26.2751 27.6701C26.4283 27.8641 26.5045 27.8489 26.6667 27.9786C27.4794 28.6277 27.9705 29.5379 28.6766 30.2827C29.0556 30.6824 29.6121 31.3628 30.1748 30.9113C31.2617 30.0395 31.5341 26.1144 31.7537 24.7312C32.1067 22.5111 32.8218 20.0889 34.898 18.9158C35.4338 17.6185 35.9966 16.2576 36.1821 14.8521C36.1857 14.827 36.2573 13.873 36.2627 13.8158C36.424 14.0429 36.6534 14.3979 36.8649 14.8637Z" fill="white"/>
<path id="Vector_2" d="M9.95339 1.48585C9.69174 1.94453 9.39782 2.80914 9.12811 3.86956C9.01789 4.30142 8.96323 4.90316 8.8324 5.29299C8.7867 5.428 8.63258 5.57732 8.55641 5.71591C7.80192 7.09195 8.12092 10.4619 8.2849 12.0284C8.41394 13.2622 9.07972 16.465 8.44888 17.4574C8.13526 17.9501 7.6702 17.7516 7.27145 17.4896C6.66122 17.0891 6.51964 16.6268 6.14061 16.0599C5.5035 15.1086 4.50617 13.7728 3.49451 13.1871C3.30633 13.0781 3.05364 13.0083 2.88787 12.8912C2.64862 12.7222 2.19879 12.1732 1.99986 11.9282C1.51688 11.3345 0.993573 10.3975 0.868123 9.63929C0.762386 9.971 0.638729 10.0023 0.598405 10.1829C0.415607 11.0019 0.68174 12.0284 0.945185 12.8143C1.02225 13.0441 1.22476 13.408 1.26508 13.6118C1.31885 13.8854 1.24626 14.3003 1.31168 14.6588C1.66563 16.6143 3.36458 19.167 4.568 20.7657C5.35027 21.8046 5.78666 23.0895 5.99634 24.3502C6.15942 25.3292 6.07071 26.0311 7.08506 26.6105C8.82165 27.6021 12.4946 26.868 14.4436 26.5148C18.2098 25.8326 19.3397 24.1168 20.6489 20.8685C21.2143 19.4665 21.9598 17.4181 21.5396 15.933C21.5109 15.8328 21.3783 15.5986 21.3783 15.5333C21.3783 15.409 21.6068 14.8216 21.6543 14.6356C21.9132 13.6244 22.226 12.2814 21.8201 11.3327C21.7403 11.1459 21.5969 10.8678 21.3326 10.5629C21.364 10.9572 21.3344 11.2764 21.303 11.491C21.303 11.491 21.0539 12.9243 19.5449 14.5086C19.3783 14.6839 19.303 14.6642 19.1309 14.7769C18.2716 15.3428 17.7125 16.1815 16.9526 16.8476C16.5449 17.2053 15.9382 17.8187 15.4114 17.3466C14.3934 16.4346 14.4194 12.6498 14.3047 11.3077C14.121 9.15378 13.5905 6.77991 11.6093 5.51026C11.1729 4.229 10.715 2.88335 10.6362 1.52251C10.6344 1.49837 10.6353 0.578323 10.6335 0.522888C10.4561 0.729429 10.1998 1.05399 9.95339 1.48585Z" fill="white"/>
</g>
</svg>
